<mxfile host="app.diagrams.net" modified="2023-05-08T18:29:57.244Z" agent="Mozilla/5.0 (Macintosh; Intel Mac OS X 10_15_7) AppleWebKit/537.36 (KHTML, like Gecko) Chrome/111.0.0.0 Safari/537.36" version="21.2.9" etag="4Z_R-c1RwGzP_eACK44N" type="github">
  <diagram name="Page-1" id="9qYa6bswBhkBGDpCXqKk">
    <mxGraphModel>
      <root>
        <mxCell id="0" />
        <mxCell id="1" parent="0" />
      </root>
    </mxGraphModel>
  </diagram>
</mxfile>
